<svg width="18" height="4" viewBox="0 0 18 4" fill="none" xmlns="http://www.w3.org/2000/svg">
<path fill-rule="evenodd" clip-rule="evenodd" d="M1.5 0.75C1.67578 0.75 1.83854 0.782552 1.98828 0.847656C2.13802 0.912761 2.26986 1.00228 2.38379 1.11621C2.49772 1.23014 2.58724 1.36198 2.65234 1.51172C2.71745 1.66146 2.75 1.82422 2.75 2C2.75 2.17578 2.71745 2.33854 2.65234 2.48828C2.58724 2.63802 2.49772 2.76986 2.38379 2.88379C2.26986 2.99772 2.13802 3.08724 1.98828 3.15234C1.83854 3.21745 1.67578 3.25 1.5 3.25C1.32422 3.25 1.16146 3.21745 1.01172 3.15234C0.861978 3.08724 0.730144 2.99772 0.616211 2.88379C0.502278 2.76986 0.412761 2.63802 0.347656 2.48828C0.282552 2.33854 0.25 2.17578 0.25 2C0.25 1.82422 0.282552 1.66146 0.347656 1.51172C0.412761 1.36198 0.502278 1.23014 0.616211 1.11621C0.730144 1.00228 0.861978 0.912761 1.01172 0.847656C1.16146 0.782552 1.32422 0.75 1.5 0.75ZM9 0.75C9.17578 0.75 9.33854 0.782552 9.48828 0.847656C9.63802 0.912761 9.76986 1.00228 9.88379 1.11621C9.99772 1.23014 10.0872 1.36198 10.1523 1.51172C10.2174 1.66146 10.25 1.82422 10.25 2C10.25 2.17578 10.2174 2.33854 10.1523 2.48828C10.0872 2.63802 9.99772 2.76986 9.88379 2.88379C9.76986 2.99772 9.63802 3.08724 9.48828 3.15234C9.33854 3.21745 9.17578 3.25 9 3.25C8.82422 3.25 8.66146 3.21745 8.51172 3.15234C8.36198 3.08724 8.23014 2.99772 8.11621 2.88379C8.00228 2.76986 7.91276 2.63802 7.84766 2.48828C7.78255 2.33854 7.75 2.17578 7.75 2C7.75 1.82422 7.78255 1.66146 7.84766 1.51172C7.91276 1.36198 8.00228 1.23014 8.11621 1.11621C8.23014 1.00228 8.36198 0.912761 8.51172 0.847656C8.66146 0.782552 8.82422 0.75 9 0.75ZM16.5 0.75C16.6758 0.75 16.8385 0.782552 16.9883 0.847656C17.138 0.912761 17.2699 1.00228 17.3838 1.11621C17.4977 1.23014 17.5872 1.36198 17.6523 1.51172C17.7174 1.66146 17.75 1.82422 17.75 2C17.75 2.17578 17.7174 2.33854 17.6523 2.48828C17.5872 2.63802 17.4977 2.76986 17.3838 2.88379C17.2699 2.99772 17.138 3.08724 16.9883 3.15234C16.8385 3.21745 16.6758 3.25 16.5 3.25C16.3242 3.25 16.1615 3.21745 16.0117 3.15234C15.862 3.08724 15.7301 2.99772 15.6162 2.88379C15.5023 2.76986 15.4128 2.63802 15.3477 2.48828C15.2826 2.33854 15.25 2.17578 15.25 2C15.25 1.82422 15.2826 1.66146 15.3477 1.51172C15.4128 1.36198 15.5023 1.23014 15.6162 1.11621C15.7301 1.00228 15.862 0.912761 16.0117 0.847656C16.1615 0.782552 16.3242 0.75 16.5 0.75Z" fill="white"/>
</svg>
