<svg xmlns="http://www.w3.org/2000/svg" viewBox="0 0 512 640" x="0px" y="0px">
  <path fill="#f2f2f2" d="M121.129,399.472a110.624,110.624,0,0,0,24.4-2.733,146.887,146.887,0,0,0,220.968.008,110.558,110.558,0,0,0,24.374,2.725,112.081,112.081,0,0,0,96.853-56.5c18.38-32.073,18.567-69.627.5-100.456-.124-.212-.259-.419-.4-.619L397.37,116.1a7.782,7.782,0,0,0-6.494-3.1h0a7.789,7.789,0,0,0-6.494,3.091l-44,61.028L262.5,68.476A8.131,8.131,0,0,0,256.005,65h0a8.078,8.078,0,0,0-6.493,3.409L171.461,176.9l-43.832-60.816A7.767,7.767,0,0,0,121.135,113h-.006a7.787,7.787,0,0,0-6.493,3.091L24.184,241.658a7.091,7.091,0,0,0-.419.586C5.675,273.28,5.9,310.973,24.376,343.122A112.033,112.033,0,0,0,121.129,399.472ZM390.862,134.236,474.6,250.915c15.172,26.136,14.9,56.767-.761,84.1a96.046,96.046,0,0,1-82.971,48.459,94.9,94.9,0,0,1-13.252-.937c2.352-3.409,4.589-6.919,6.671-10.551a137.656,137.656,0,0,0,18.479-64.626,126.636,126.636,0,0,0-17.79-68.148c-.124-.212-.259-.419-.4-.619l-34.361-47.876ZM255.991,86.872l76.617,106.75a7.941,7.941,0,0,0,2.634,3.67l36.116,50.322a110.826,110.826,0,0,1,15.416,59.34,121.61,121.61,0,0,1-16.367,57.075C346.793,405.237,302.955,430.836,256,430.836a131.993,131.993,0,0,1-100.213-46.693,7.928,7.928,0,0,0-2.294-2.765,133.329,133.329,0,0,1-11.776-17.2,122.087,122.087,0,0,1-16.488-57.308,111.8,111.8,0,0,1,15.415-59.723l37.194-51.68.007-.011ZM37.4,250.567l83.721-116.331,40.48,56.4L127.43,238.119q-.225.312-.419.644a127.607,127.607,0,0,0-17.777,68.527,138.129,138.129,0,0,0,18.61,64.859c2.052,3.573,4.256,7.027,6.572,10.384a94.945,94.945,0,0,1-13.287.939,96.023,96.023,0,0,1-82.88-48.35C22.5,307.707,22.193,276.912,37.4,250.567Z"/><path d="M256,313.222a25.029,25.029,0,1,1-25.029,25.029,8,8,0,0,0-16,0A41.094,41.094,0,0,0,248,378.491V391a8,8,0,0,0,16,0V378.491a41.028,41.028,0,0,0-8-81.269,25.029,25.029,0,1,1,25.029-25.029,8,8,0,0,0,16,0A41.094,41.094,0,0,0,264,231.953V221a8,8,0,0,0-16,0v10.953a41.028,41.028,0,0,0,8,81.269Z"/>
</svg>
