<svg width="12" height="12" viewBox="0 0 12 12" fill="none" xmlns="http://www.w3.org/2000/svg">
<path d="M10.4473 5.78906C10.4473 5.82422 10.4473 5.85938 10.4473 5.89453C10.4512 5.92969 10.4531 5.96484 10.4531 6C10.4531 6.03516 10.4512 6.07031 10.4473 6.10547C10.4473 6.14062 10.4473 6.17578 10.4473 6.21094L11.9648 7.1543L11.0332 9.39844L9.29297 9C9.19922 9.10156 9.10156 9.19922 9 9.29297L9.39844 11.0332L7.1543 11.9648L6.21094 10.4473C6.17578 10.4473 6.14062 10.4492 6.10547 10.4531C6.07031 10.4531 6.03516 10.4531 6 10.4531C5.96484 10.4531 5.92969 10.4531 5.89453 10.4531C5.85938 10.4492 5.82422 10.4473 5.78906 10.4473L4.8457 11.9648L2.60156 11.0332L3 9.29297C2.89844 9.19922 2.80078 9.10156 2.70703 9L0.966797 9.39844L0.0351562 7.1543L1.55273 6.21094C1.55273 6.17578 1.55078 6.14062 1.54688 6.10547C1.54688 6.07031 1.54688 6.03516 1.54688 6C1.54688 5.96484 1.54688 5.92969 1.54688 5.89453C1.55078 5.85938 1.55273 5.82422 1.55273 5.78906L0.0351562 4.8457L0.966797 2.60156L2.70703 3C2.80078 2.89844 2.89844 2.80078 3 2.70703L2.60156 0.966797L4.8457 0.0351562L5.78906 1.55273C5.82422 1.55273 5.85938 1.55273 5.89453 1.55273C5.92969 1.54883 5.96484 1.54688 6 1.54688C6.03516 1.54688 6.07031 1.54883 6.10547 1.55273C6.14062 1.55273 6.17578 1.55273 6.21094 1.55273L7.1543 0.0351562L9.39844 0.966797L9 2.70703C9.10156 2.80078 9.19922 2.89844 9.29297 3L11.0332 2.60156L11.9648 4.8457L10.4473 5.78906ZM9.76172 6.55078C9.76953 6.45703 9.77734 6.36523 9.78516 6.27539C9.79297 6.18164 9.79688 6.08789 9.79688 5.99414C9.79688 5.9043 9.79297 5.8125 9.78516 5.71875C9.77734 5.625 9.76953 5.5332 9.76172 5.44336L11.1445 4.58203L10.6406 3.36328L9.05273 3.73242C8.93164 3.58398 8.80664 3.44727 8.67773 3.32227C8.55273 3.19727 8.41602 3.07227 8.26758 2.94727L8.63672 1.35938L7.41797 0.855469L6.55078 2.23828C6.46094 2.23047 6.36914 2.22266 6.27539 2.21484C6.18164 2.20703 6.08984 2.20312 6 2.20312C5.90625 2.20312 5.8125 2.20703 5.71875 2.21484C5.62891 2.22266 5.53711 2.23047 5.44336 2.23828L4.58203 0.855469L3.36328 1.35938L3.73242 2.94727C3.58398 3.06836 3.44727 3.19336 3.32227 3.32227C3.19727 3.44727 3.07227 3.58398 2.94727 3.73242L1.35938 3.36328L0.855469 4.58203L2.23828 5.44922C2.23047 5.54297 2.22266 5.63672 2.21484 5.73047C2.20703 5.82031 2.20312 5.91211 2.20312 6.00586C2.20312 6.0957 2.20703 6.1875 2.21484 6.28125C2.22266 6.375 2.23047 6.4668 2.23828 6.55664L0.855469 7.41797L1.35938 8.63672L2.94727 8.26758C3.06836 8.41602 3.19141 8.55273 3.31641 8.67773C3.44531 8.80273 3.58398 8.92773 3.73242 9.05273L3.36328 10.6406L4.58203 11.1445L5.44922 9.76172C5.53906 9.76953 5.63086 9.77734 5.72461 9.78516C5.81836 9.79297 5.91016 9.79688 6 9.79688C6.09375 9.79688 6.18555 9.79297 6.27539 9.78516C6.36914 9.77734 6.46289 9.76953 6.55664 9.76172L7.41797 11.1445L8.63672 10.6406L8.26758 9.05273C8.41602 8.93164 8.55273 8.80859 8.67773 8.68359C8.80273 8.55469 8.92773 8.41602 9.05273 8.26758L10.6406 8.63672L11.1445 7.41797L9.76172 6.55078ZM6 3.79688C6.30469 3.79688 6.58984 3.85547 6.85547 3.97266C7.125 4.08594 7.35938 4.24219 7.55859 4.44141C7.75781 4.64062 7.91406 4.875 8.02734 5.14453C8.14453 5.41016 8.20312 5.69531 8.20312 6C8.20312 6.30469 8.14453 6.5918 8.02734 6.86133C7.91406 7.12695 7.75781 7.35938 7.55859 7.55859C7.35938 7.75781 7.125 7.91602 6.85547 8.0332C6.58984 8.14648 6.30469 8.20312 6 8.20312C5.69531 8.20312 5.4082 8.14648 5.13867 8.0332C4.87305 7.91602 4.64062 7.75781 4.44141 7.55859C4.24219 7.35938 4.08398 7.12695 3.9668 6.86133C3.85352 6.5918 3.79688 6.30469 3.79688 6C3.79688 5.69531 3.85352 5.41016 3.9668 5.14453C4.08398 4.875 4.24219 4.64062 4.44141 4.44141C4.64062 4.24219 4.87305 4.08594 5.13867 3.97266C5.4082 3.85547 5.69531 3.79688 6 3.79688ZM6 7.54688C6.21484 7.54688 6.41602 7.50781 6.60352 7.42969C6.79102 7.34766 6.95508 7.23633 7.0957 7.0957C7.23633 6.95508 7.3457 6.79102 7.42383 6.60352C7.50586 6.41602 7.54688 6.21484 7.54688 6C7.54688 5.78516 7.50586 5.58398 7.42383 5.39648C7.3457 5.20898 7.23633 5.04492 7.0957 4.9043C6.95508 4.76367 6.79102 4.6543 6.60352 4.57617C6.41602 4.49414 6.21484 4.45312 6 4.45312C5.78516 4.45312 5.58398 4.49414 5.39648 4.57617C5.20898 4.6543 5.04492 4.76367 4.9043 4.9043C4.76367 5.04492 4.65234 5.20898 4.57031 5.39648C4.49219 5.58398 4.45312 5.78516 4.45312 6C4.45312 6.21484 4.49219 6.41602 4.57031 6.60352C4.65234 6.79102 4.76367 6.95508 4.9043 7.0957C5.04492 7.23633 5.20898 7.34766 5.39648 7.42969C5.58398 7.50781 5.78516 7.54688 6 7.54688Z" fill="#F2F2F2"/>
</svg>
